<?xml version="1.0" encoding="UTF-8"?><svg id="Capa_2" xmlns="http://www.w3.org/2000/svg" viewBox="0 0 1366 768.07"><defs><style>.cls-1{fill:#f8f9f7;}.cls-1,.cls-2,.cls-3,.cls-4,.cls-5,.cls-6,.cls-7,.cls-8,.cls-9,.cls-10,.cls-11,.cls-12,.cls-13,.cls-14,.cls-15,.cls-16,.cls-17,.cls-18{stroke-width:0px;}.cls-2{fill:#fea968;}.cls-3{fill:#fdcaab;}.cls-4{fill:#6c251a;}.cls-5{fill:#9c3515;}.cls-6{fill:#e8d3cb;}.cls-7{fill:#a64417;}.cls-8{fill:none;}.cls-9{fill:#fcf0e0;}.cls-10{fill:#723c21;}.cls-11{fill:#775548;}.cls-12{fill:#dfcab3;}.cls-13{fill:#50220e;}.cls-14{fill:#cbbbb1;}.cls-15{fill:#dd7936;}.cls-16{fill:#581408;}.cls-17{fill:#772609;}.cls-18{fill:#320c07;}</style></defs><g id="Capa_1-2"><rect class="cls-11" width="1366" height="768"/><rect class="cls-13" x="340" y="18" width="665" height="750"/><ellipse class="cls-9" cx="540.5" cy="383" rx="23.5" ry="30"/><rect class="cls-12" x="515" y="442" width="319" height="185"/><path class="cls-8" d="M853.21,614.65c-.03,1.68-.08,3.47-.18,5.38.1-1.92.15-3.7.18-5.38Z"/><path class="cls-8" d="M851.62,635.55c-.1.54-.2,1.15-.3,1.86.1-.7.2-1.32.3-1.86Z"/><path class="cls-8" d="M843.13,748.12c-.08-4.51.24-9.13.27-13.24.07-11.67.81-23.19,1.83-34.67-1.01,11.48-1.75,23-1.83,34.67-.03,4.11-.35,8.73-.27,13.24Z"/><path class="cls-8" d="M853.83,572.89c-.44,4.39-.72,8.18-.88,11.55.16-3.37.44-7.16.88-11.55Z"/><path class="cls-8" d="M859.39,537.98c-.78,4.34-1.54,8.42-2.23,12.24.69-3.83,1.45-7.9,2.23-12.24Z"/><path class="cls-8" d="M853.22,613c0,.54,0,1.09-.02,1.65,0-.56.01-1.11.02-1.65Z"/><path class="cls-8" d="M854.11,570.19c.1-.93.21-1.88.33-2.86.48-4.04,1.2-8.48,2.05-13.36-.86,4.88-1.57,9.32-2.05,13.36-.12.98-.23,1.93-.33,2.86Z"/><path class="cls-8" d="M852.04,633.62c.31-1.16.54-1.6.56-1.85.04-.46.05-.91.04-1.38,0,.46,0,.92-.04,1.38-.02.24-.25.68-.56,1.85Z"/><path class="cls-8" d="M864.1,508.65c.49-3.63.96-7.4,1.39-11.3.47-4.21.68-8.32.83-12.41-.15,4.09-.36,8.2-.83,12.41-.43,3.9-.9,7.66-1.39,11.3Z"/><path class="cls-8" d="M714.1,65.21c1.31-4.89,2.16-8.99,2.25-11.6,8.81-1.96,17.87-2.39,26.88-2.95-9.01.55-18.07.99-26.88,2.95-.09,2.6-.94,6.71-2.25,11.6Z"/><path class="cls-8" d="M852.56,627.62c0-.46,0-.92.04-1.37.19-2.23.33-4.29.42-6.21-.1,1.92-.23,3.97-.42,6.21-.04.45-.05.91-.04,1.37Z"/><path class="cls-8" d="M852.75,591.82c0-1.69.04-3.48.11-5.4-.07,1.93-.1,3.71-.11,5.4Z"/><path class="cls-8" d="M830.54,51.49c5.95.78,11.9,1.53,17.86,2.22-5.95-.69-11.91-1.44-17.86-2.22Z"/><path class="cls-8" d="M889.43,295.74h0c.05,1.28-.42,4.08-1.16,7.7.75-3.62,1.21-6.42,1.16-7.7Z"/><path class="cls-8" d="M714.1,65.21c-1.31,4.89-3.09,10.55-5.02,16.27,1.93-5.72,3.71-11.39,5.02-16.27Z"/><path class="cls-8" d="M794.89,46.67c8.9,1.18,17.81,2.43,26.73,3.63-8.92-1.2-17.83-2.45-26.73-3.63Z"/><path class="cls-8" d="M886.96,309.38c-.49,2.13-1.01,4.37-1.55,6.64.54-2.27,1.07-4.52,1.55-6.64Z"/><path class="cls-8" d="M883.79,322.84c-.53,2.24-1.05,4.42-1.52,6.45.47-2.03.99-4.21,1.52-6.45Z"/><path class="cls-8" d="M864.1,508.65c-.49,3.63-1,7.14-1.53,10.52.52-3.38,1.04-6.88,1.53-10.52Z"/><path class="cls-8" d="M885.41,316.03c-.54,2.27-1.09,4.57-1.62,6.81.53-2.24,1.09-4.54,1.62-6.81Z"/><path class="cls-8" d="M862.58,519.17c-1.05,6.76-2.14,13.02-3.18,18.8,1.04-5.79,2.13-12.04,3.18-18.8Z"/><path class="cls-8" d="M848.4,53.7c5.95.69,11.91,1.32,17.86,1.86-5.96-.54-11.91-1.17-17.86-1.86Z"/><path class="cls-8" d="M657.43,745.93c-3.77-.73-5.63,1.56-9.21,1.84-14.01,6.59-21.75,10.24-28.83,13.57h54.12c-7.86-6.73-13.93-12.34-16.08-15.41Z"/><path class="cls-8" d="M458.57,721.99c-.02-.13-2.04.45-1.84-1.84-7.45,13.52-13.65,27.45-20.4,41.19h27.49c-.44-2.67-1.22-5.27-1.56-8.04-1.29-10.4-1.91-20.94-3.68-31.3Z"/><path class="cls-8" d="M565.37,760.66c.73-3.9-1.56-4.4-4.6-3.68-3.09.73-7.55,2.26-12.94,4.36h39.14c-3.56-15.25-20.56-3.5-21.6-.68Z"/><path class="cls-8" d="M844.26,757.8c.26.99.59,1.95.98,2.86.34.21.7.44,1.07.68h0c-.37-.24-.73-.47-1.07-.68-.39-.91-.71-1.87-.98-2.86Z"/><path class="cls-10" d="M866.26,55.56c-5.96-.54-11.91-1.17-17.86-1.86-5.95-.69-11.91-1.44-17.86-2.22-2.97-.39-5.95-.79-8.92-1.19-8.92-1.2-17.83-2.45-26.73-3.63-5.93-.79-11.86-1.55-17.78-2.26-10.8,4.63-22.3,5.55-33.88,6.26-9.01.55-18.07.99-26.88,2.95-.09,2.6-.94,6.71-2.25,11.6-1.31,4.89-3.09,10.55-5.02,16.27-3.87,11.44-8.38,23.11-11.14,29.21,1.28,7.54,3.99,14.43,6.64,20.36,1.99,4.45,3.94,8.36,5.22,11.61.43,1.08.78,2.09,1.03,3.02.6.15,1.28.44,1.93.78.65.34,1.27.72,1.75,1.06,6.5,4.44,12.08,9.5,16.46,13.83,1.25,1.24,2.4,2.41,3.45,3.49s1.99,2.07,2.81,2.94c2.07,2.17,3.43,3.56,3.98,3.68,1.98.42,20.53-1,38.59-1.89,4.01-.2,8-.37,11.78-.48,1.89-.06,3.72-.1,5.48-.13,7.04-.11,12.86.04,15.96.66,1.38,17.46,5.37,30.63,10.98,41.53,6.85,13.32,16.12,23.25,25.99,33.45,1.79,1.86,3.61,3.72,5.43,5.62,9.11,9.48,18.45,19.75,26.65,33.56.07.11.36.29.78.56.85.54,2.26,1.45,3.56,2.99.43.52.85,1.1,1.23,1.77.96,1.67,1.68,3.83,1.79,6.65h0c.05,1.28-.42,4.08-1.16,7.7-.37,1.81-.82,3.82-1.3,5.95-.49,2.13-1.01,4.37-1.55,6.64-.54,2.27-1.09,4.57-1.62,6.81-.53,2.24-1.05,4.42-1.52,6.45-.94,4.06-1.7,7.54-2.04,9.71-.25,1.58-.5,3.11-.76,4.59-1.02,5.91-2.09,11.03-3.12,15.38-.26,1.09-.51,2.13-.76,3.12-1.74,6.96-3.25,11.64-4.03,14.25-.33,1.12-.53,1.86-.55,2.24-.01.28,0,.59.03.94.1,1.06.4,2.46.79,4.2s.88,3.83,1.37,6.25c.32,1.62.64,3.38.93,5.3,1.01,6.71,1.63,15.27.56,25.65-.74,7.21-2.22,14.4-3.69,21.61-1.47,7.21-2.94,14.42-3.67,21.66-.43,4.28-.62,8.44-.76,12.54-.09,2.74-.16,5.46-.25,8.19-.15,4.09-.36,8.2-.83,12.41-.43,3.9-.9,7.66-1.39,11.3-.49,3.63-1,7.14-1.53,10.52-1.05,6.76-2.14,13.02-3.18,18.8-.78,4.34-1.54,8.42-2.23,12.24-.23,1.28-.45,2.52-.67,3.74-.86,4.88-1.57,9.32-2.05,13.36-.12.98-.23,1.93-.33,2.86-.1.93-.2,1.83-.29,2.71-.44,4.39-.72,8.18-.88,11.55-.03.67-.06,1.33-.08,1.97-.07,1.93-.1,3.71-.11,5.4,0,.56,0,1.11,0,1.66,0,1.08.02,2.13.04,3.15.05,2.04.12,3.98.19,5.9.04.96.07,1.92.11,2.89.03.97.06,1.94.09,2.94s.04,2.01.05,3.06c0,.52,0,1.05,0,1.6,0,.54,0,1.09-.02,1.65-.03,1.68-.08,3.47-.18,5.38s-.23,3.97-.42,6.21c-.04.45-.05.91-.04,1.37s.02.92.04,1.39c.02.46.04.93.04,1.39,0,.46,0,.92-.04,1.38-.02.24-.25.68-.56,1.85-.13.5-.28,1.13-.43,1.94-.1.54-.2,1.15-.3,1.86-.2,1.41-.39,3.18-.55,5.41-1.4,19.27-3.85,38.26-5.54,57.39-1.01,11.48-1.75,23-1.83,34.67-.03,4.11-.35,8.73-.27,13.24.06,3.38.34,6.7,1.13,9.68.26.99.59,1.95.98,2.86.34.21.7.44,1.07.68h27.38c15.15-125.61,33.12-476.14,48.88-714.17q-1.84-.46-3.68-.92.46,5.52.92,11.05c-17.82.72-35.68-.11-53.55-1.73Z"/><path class="cls-13" d="M456.73,720.15c10.6-19.24,23.5-27.98,25.78-42.35.62-3.9-.09-10.07,0-14.73-53.09,17.6-29.54,1.02-1.84-34.98-.05-7.98.1-15.96,0-23.94q-1.38,1.84-2.76,3.68c-40.16-43.47-6.52-46.17-6.44-61.68.01-2.21-10.89-31.3-12.89-42.35-4.09-22.64-7.32-61.01-11.05-77.33-1.93-8.44-18.48-40.06-18.41-46.03.11-9.52,30.96-54.72,31.3-58,.73-6.92-8.53-3.4,0-24.86,8.93-22.46,42.74-63.32,58.92-83.78-7.24-3.24,4.36-28.47,7.36-32.22,5.75-7.19,6.06-2.17,7.36-2.76,15.44-6.95,33.38-7.64,49.71-11.05q-1.84-1.38-3.68-2.76c15.4-14.95,52.44-62.1,57.08-48.79,2.94-8.47,6.91-14.46,7.36-23.94-17.25-12.29-18.55-21.38-22.1-40.51-37.24,1.48-83.87,20.36-66.29-5.52-16.03,2.17-126.93,10.83-130.73,17.49-1.09,1.91,1.99,9.61-1.84,10.13-1.6,40.24,0,81.21,0,121.52,0,188.63,2.99,377.33,5.35,565.95h7.4c6.75-13.74,12.95-27.67,20.4-41.19Z"/><path class="cls-13" d="M425.43,63.74c3.8-6.66,114.7-15.32,130.73-17.49,16.24-2.2,33.84-3.74,49.71-7.36,13.93-3.18,24.09-1.48,22.1-20.25-21.32,1.33-190.39,20.31-199.78,23.94-7.72,2.98-4.26,22.71-4.6,31.3,3.83-.52.75-8.22,1.84-10.13Z"/><path class="cls-13" d="M714.51,44.41c.09-7.82,38.77-6.69,50.63-5.52,10.16,1,11.31,5.45,11.97,5.52,5.92.71,11.84,1.47,17.78,2.26,8.9,1.18,17.81,2.43,26.73,3.63,2.97.4,5.95.8,8.92,1.19,5.95.78,11.9,1.53,17.86,2.22,5.95.69,11.91,1.32,17.86,1.86,17.87,1.62,35.73,2.46,53.55,1.73q-.46-5.52-.92-11.05c-62.2-5.89-157.32-23.81-213.59-27.62,2.11,5.73,5.49,10.68,7.36,16.57.98,3.06,1.39,6.02,1.84,9.21Z"/><path class="cls-13" d="M743.23,50.66c11.58-.71,23.08-1.63,33.88-6.26-.65-.08-1.81-4.52-11.97-5.52-11.86-1.17-50.55-2.3-50.63,5.52.51,3.57,1.98,5.14,1.84,9.21,8.81-1.96,17.87-2.39,26.88-2.95Z"/><path class="cls-18" d="M480.67,596.78c-.93-52.56-3.65-86.58-9.21-138.09-2.72-25.2-11.75-54.68-12.89-79.17-.36-7.81-.34-16.13,0-23.94.4-9.02,7.54-22.82,3.68-33.14h-1.84c-.34,3.28-31.19,48.48-31.3,58-.07,5.97,16.49,37.59,18.41,46.03,3.73,16.33,6.96,54.7,11.05,77.33,2,11.05,12.9,40.14,12.89,42.35-.08,15.51-33.72,18.21,6.44,61.68q1.38-1.84,2.76-3.68c-.03-2.45.04-4.91,0-7.36Z"/><path class="cls-18" d="M615.08,164.09c.11-.25,2.91.77,3.68-.92,3.98-8.69,13.12-31.83,16.57-41.43.67-1.85,1.21-3.71,1.84-5.52-4.63-13.31-41.68,33.84-57.08,48.79q1.84,1.38,3.68,2.76c1.69-.35,1.99-1.48,3.68-1.84,22.41-4.78,30.76-9.69,27.62-1.84Z"/><path class="cls-18" d="M605.88,38.88c-15.88,3.63-33.47,5.16-49.71,7.36-17.58,25.88,29.05,7.01,66.29,5.52-1.98-10.7,9.37-14.12-16.57-12.89Z"/><path class="cls-18" d="M482.51,663.07c.12-6.25-1.74-19.15-1.84-34.98-27.69,36-51.25,52.58,1.84,34.98Z"/><path class="cls-13" d="M534.07,178.82c-1.31.59-1.61-4.43-7.36,2.76-3,3.75-14.6,28.98-7.36,32.22,11.04-13.97,19.37-7.27,14.73-34.98Z"/><path class="cls-18" d="M657.43,156.72c26.45-8.94,25.97,21.95,1.84,16.57-.05,2.18-3.66,3.82-3.68,4.6-.65,27.15-.32,54.77,0,81.94,4.47-.47,10.47-.91,14.73-1.84,3.38-.74,6.41-1.28,9.21-3.68-1.69-14.53-1.57-123.33,0-141.78l-5.52,1.84c2.89,24.46-8.62-1.28-9.21-33.14-.05-2.89.8-5.65-1.84-5.52-.52,8.45-5.11,20.45-5.52,28.54-.9,17.43.49,35.26,0,52.48Z"/><path class="cls-6" d="M674,114.37c-1.84-15.55-5.93-39.88-9.21-33.14.59,31.87,12.1,57.6,9.21,33.14Z"/><path class="cls-9" d="M657.43,156.72c-.48,16.98,1.86,15.74,1.84,16.57,24.13,5.38,24.61-25.51-1.84-16.57Z"/><path class="cls-16" d="M662.95,40.72c.12.59-.1,1.25,0,1.84,1.96,11.1.69,22,0,33.14,2.64-.12,1.79,2.64,1.84,5.52,3.28-6.73,7.37,17.59,9.21,33.14l5.52-1.84c.84-9.94.8-22.44,5.52-31.3-.93-11.69-3.59-23.09-3.68-34.98-.1-13.13-3.59-21.01,12.89-27.62-18.54-.95-31.33-.72-49.71,0,20.56,10.29,16.73,13.91,18.41,22.09Z"/><rect class="cls-13" x="567" y="76" width="172" height="115"/><path class="cls-5" d="M681.37,46.25c12.51.37,19.39,7.16,27.62-5.52,2.8-4.32-2.19-5.88,3.68-5.52-1.88-5.89-5.26-10.84-7.36-16.57-3.65-.25-7.39.19-11.05,0-16.48,6.6-12.99,14.49-12.89,27.62Z"/><path class="cls-2" d="M696.1,305.86c8.49,10.89,39.69,22.65,16.57,20.25q7.37,31.3,14.73,62.6c.47.01-2.47,1.31,9.21,1.84,7.06.32,15.79-.81,22.1,0,.43.06,2.48,1.01,7.36,1.84-16.61-53.13-8.47-60.12-57.08-89.3,14.87-15.32,21.8,5.97,38.67,14.73-1.61-59.06-21.43-115.59-36.83-172.16-.25-.93-.6-1.94-1.03-3.02-1.28-3.25-3.23-7.16-5.22-11.61-2.65-5.93-5.37-12.82-6.64-20.36-6.55-38.68,12.02-49.26,11.05-69.97-8.23,12.68-15.11,5.89-27.62,5.52.09,11.9,2.75,23.3,3.68,34.98,2.88,36.28,6.4,83.67,12.89,118.76,11.17,60.43,31.67,47.54-1.84,105.87Z"/><path class="cls-7" d="M708.99,303.1c48.6,29.18,40.47,36.17,57.08,89.3,8.22,1.39,20.82,11.07,20.25,4.6-28.4-47.8-28.41-105.13-36.83-138.09-9.58-37.49-25.74-73.73-34.98-111.4-.49-.33-1.11-.72-1.75-1.06-.65-.34-1.32-.63-1.93-.78,15.4,56.57,35.21,113.09,36.83,172.16-16.87-8.76-23.79-30.05-38.67-14.73Z"/><path class="cls-7" d="M697.94,110.69c2.76-6.1,7.27-17.77,11.14-29.21,1.93-5.72,3.71-11.39,5.02-16.27,1.31-4.89,2.16-8.99,2.25-11.6.14-4.07-1.33-5.63-1.84-9.21-.46-3.19-.86-6.14-1.84-9.21-5.87-.36-.88,1.2-3.68,5.52.97,20.71-17.6,31.28-11.05,69.97Z"/><path class="cls-15" d="M679.53,254.31c1.01,8.7,13.05,47.04,16.57,51.56,33.51-58.33,13.02-45.45,1.84-105.87-6.49-35.1-10.01-82.49-12.89-118.76-4.73,8.86-4.68,21.36-5.52,31.3-1.57,18.44-1.69,127.25,0,141.78Z"/><path class="cls-4" d="M674,260.75c3.98,17.92,6.14,102.54,3.68,128.89,2.76,6.21,18.78.84,27.62.92q-4.6-34.52-9.21-69.05c2.56-3.83,10.13,3.94,16.57,4.6,23.12,2.39-8.08-9.36-16.57-20.25-3.52-4.52-15.56-42.86-16.57-51.56-2.8,2.4-5.82,2.94-9.21,3.68,1.15-.1,3.55,2.17,3.68,2.76Z"/><path class="cls-7" d="M696.1,321.52q4.6,34.52,9.21,69.05c18.07.17,20.99-1.88,22.1-1.84q-7.36-31.3-14.73-62.6c-6.44-.67-14.01-8.43-16.57-4.6Z"/><path class="cls-5" d="M605.88,38.88c25.94-1.23,14.59,2.19,16.57,12.89,3.54,19.13,4.84,28.22,22.1,40.51.6-12.71-8.18-10.92-12.89-23.02-13.62-34.97,3.99-25.19,31.3-28.54-1.68-8.19,2.14-11.8-18.41-22.09-5.5.22-11.09-.34-16.57,0,2,18.77-8.16,17.07-22.1,20.25Z"/><path class="cls-2" d="M605.88,209.2c-2.59,8.78-18.67,76.87-18.41,81.02.53,8.52,19.9,17.05,20.25,18.41.88,3.37-7.1,7.8-7.36,8.29-12.12,22.44-14.22,49.19-7.36,73.65,13.04.35,25.7,1.24,38.67,1.84-8.3-31.41-1.2-82.11-3.68-85.62-3.16-4.45-14.4,9.52-36.83-14.73,19.9-17.79,22.42-7.69,39.59,8.29,13.08-2.14,13.92-231.18,32.22-257.78-.1-.6.12-1.25,0-1.84-27.31,3.35-44.92-6.43-31.3,28.54,4.71,12.1,13.49,10.3,12.89,23.02-.45,9.48-4.42,15.47-7.36,23.94-.63,1.81-1.18,3.67-1.84,5.52-.79,27.2-21.58,60.75-29.46,87.46Z"/><path class="cls-15" d="M587.46,266.28c-4.53,11.55-5.31,23.85-7.36,35.9,7.14,2.56,18.58,7.33,20.25,14.73.26-.49,8.25-4.92,7.36-8.29-.36-1.36-19.72-9.89-20.25-18.41-.26-4.15,15.82-72.24,18.41-81.02,7.88-26.71,28.67-60.26,29.46-87.46-3.45,9.59-12.59,32.74-16.57,41.43-.77,1.69-3.57.67-3.68.92-12.05,26.44-25.74,48.37-34.98,77.33q3.68,12.43,7.36,24.86Z"/><path class="cls-7" d="M580.1,302.18c-4.93,28.86-16.3,58.62-18.41,88.38,10.41.33,20.88-.28,31.3,0-6.85-24.46-4.75-51.21,7.36-73.65-1.67-7.4-13.11-12.17-20.25-14.73Z"/><path class="cls-15" d="M630.73,300.34c-17.16-15.97-19.69-26.07-39.59-8.29,22.42,24.25,33.67,10.28,36.83,14.73,2.49,3.51-4.62,54.21,3.68,85.62,9.76.46,19.73-.67,29.46,0-4.7-44.09-5.01-88.3-5.52-132.57-.32-27.16-.65-54.79,0-81.94.02-.78,3.63-2.43,3.68-4.6.02-.83-2.32.41-1.84-16.57.49-17.22-.9-35.05,0-52.48.42-8.09,5-20.09,5.52-28.54.69-11.14,1.96-22.04,0-33.14-18.3,26.59-19.15,255.63-32.22,257.78ZM649.14,280.09c8.02,35.56,3.35,72.5,7.37,108.63q-5.06-.46-10.13-.92c-3.62-5.09-3.25-92.88,2.76-107.71Z"/><path class="cls-5" d="M656.51,388.72c-4.02-36.14.65-73.08-7.37-108.63-6.01,14.83-6.38,102.62-2.76,107.71q5.06.46,10.13.92Z"/><path class="cls-17" d="M580.1,302.18c2.06-12.05,2.83-24.35,7.36-35.9q-3.68-12.43-7.36-24.86c-15.16,47.49-19.56,101.39-40.51,148.22.45,3.15,9.78.52,20.25.92.61.02,1.23-.02,1.84,0,2.12-29.77,13.48-59.52,18.41-88.38Z"/><path class="cls-9" d="M657.43,742.24c3.66.19,7.4-.27,11.05,0,16.72,1.23,41.99,5.7,58.92,9.21,18.22-9.91-49.46-11.54-52.48-12.89-1.38-.62-14.44-23.95-10.13-26.7,63.51,5.98,98.4,14.42,157.43,35.9,5.18,1.88,15.89,1.36,16.57,1.84,3.38,2.4-4.29,4.4,6.44,11.05-.39-.91-.71-1.87-.98-2.86-.8-2.98-1.08-6.3-1.13-9.68-.08-4.51.24-9.13.27-13.24-50.1-53.38-82.08-68.99-1.84-34.06,10.11-39.52-65.15-11.72-7.36-61.68-66.77-23.97-39.42-21.37,18.41-7.37.04-.46.05-.91.04-1.38,0-.46-.02-.92-.04-1.39-.02-.46-.04-.93-.04-1.39s0-.92.04-1.37c-7.42,1.39-10.88-8.72-18.41-12.89-2.45-1.36-4.38,1.96-4.6,1.84-39.38-21.04-101.69-45.81-145.46-51.56-6.92-.91-46.3-3.52-45.11,1.84,11.7-.11,17.76-2.64,13.81,1.84-55.52,10.05-104.66,41.37-147.3,77.33,53.27-21.69,107.3-40.94,165.71-33.14,80.77,10.79-8.25,7.4-29.46,9.21-54.57,4.64-114.74,25.16-159.27,57.08-2.28,14.37-15.18,23.11-25.78,42.35-.2,2.29,1.82,1.71,1.84,1.84,40.64-30.55,122.92-59.71,172.16-71.81,2.01-.49,6.65-.58,6.44,1.84,60.02-20.31,101.75-17.59,159.27,9.21.46,10.86-16.89,1.33-30.38,1.84-62.61,2.37-125.07,52.72-213.59,51.56,3.25-8.79-2.13-1.36-5.52-11.97,1.11-1.52,19.11-2.81,16.57-11.97-12.78,8.28-27.06,14.58-38.67,24.86q4.14,4.14,8.29,8.29-35.44,14.73-70.89,29.46c.34,2.78,1.12,5.38,1.56,8.04h20.37c4.36-.93,8.46-1.82,11.21-2.52,52.74-13.56,107.75-19.35,162.03-16.57Z"/><path class="cls-9" d="M838.79,749.61c-.68-.48-11.39.04-16.57-1.84-59.03-21.49-93.92-29.93-157.43-35.9-4.32,2.75,8.74,26.08,10.13,26.7,3.01,1.35,70.7,2.98,52.48,12.89,12.96,2.68,25.62,6.14,38.18,9.89h80.74c-.37-.24-.73-.47-1.07-.68-10.73-6.65-3.06-8.65-6.44-11.05Z"/><path class="cls-9" d="M657.43,742.24c.12,1.51-.22,3.37,0,3.68,2.15,3.07,8.22,8.68,16.08,15.41h10.94c-7.91-8.37-14.85-16.27-15.98-19.09-3.65-.27-7.39.19-11.05,0Z"/><path class="cls-9" d="M733.16,761.33h3.47c-1.3-.52-2.26-.78-2.79-.68-.29.29-.49.49-.68.68Z"/><path class="cls-12" d="M863.65,460.53c-7.16-26.04-11.97-53.04-22.1-78.25-29.46-73.38-45.14-77.81-3.68,14.73,21.63,80.52,11.26,61.47-11.97-4.6-5.16-.47-1.89,15.31-2.76,29.46-.22,3.54-5.53,3.8-5.52,4.6.03,2.77,7.65,26.92,11.05,54.32,2.69,21.69,6.22,42.86,9.21,64.44,1.97,14.26,7.92,39.4,7.36,41.43-.33,1.21-6.2,1.95-11.05,21.17-.4,1.58.24,3.78,0,5.52,7.53,4.17,10.99,14.27,18.41,12.89.19-2.23.33-4.29.42-6.21s.15-3.7.18-5.38c0-.56.01-1.11.02-1.65,0-.54,0-1.07,0-1.6,0-1.05-.02-2.06-.05-3.06s-.05-1.97-.09-2.94c-.03-.97-.07-1.92-.11-2.89-.07-1.92-.14-3.86-.19-5.9-.02-1.02-.04-2.07-.04-3.15,0-.54,0-1.09,0-1.66,0-1.69.04-3.48.11-5.4.02-.64.05-1.3.08-1.97.16-3.37.44-7.16.88-11.55.09-.88.18-1.78.29-2.71.1-.93.21-1.88.33-2.86-17.78-9.58,1.45-56.27,11.05-69.97.47-4.21.68-8.32.83-12.41.1-2.73.16-5.45.25-8.19.14-4.11.33-8.26.76-12.54-4.92.64-3.12-1.63-3.68-3.68Z"/><path class="cls-12" d="M841.56,700.81c-80.24-34.93-48.26-19.32,1.84,34.06.07-11.67.81-23.19,1.83-34.67,1.69-19.13,4.14-38.12,5.54-57.39-5.63.09-11.39-1.82-16.57-3.68-57.78,49.97,17.47,22.16,7.36,61.68Z"/><path class="cls-9" d="M828.67,290.21c12.11,15.87,42.68,43.95,34.98,50.63,18.81,27.73,5.49,22.02,5.52,32.22.08,23.55,6.7,51.06-5.52,87.46.57,2.06-1.24,4.33,3.68,3.68.73-7.24,2.2-14.46,3.67-21.66,1.47-7.2,2.95-14.4,3.69-21.61,1.07-10.38.45-18.94-.56-25.65-.29-1.92-.61-3.69-.93-5.3-.49-2.42-.98-4.51-1.37-6.25s-.69-3.14-.79-4.2c-.03-.35-.04-.67-.03-.94.02-.38.22-1.12.55-2.24.78-2.61,2.29-7.29,4.03-14.25.25-.99.5-2.04.76-3.12,1.02-4.36,2.09-9.47,3.12-15.38.26-1.48.51-3.01.76-4.59q-20.25-27.16-40.51-54.32c-52.84-54.7-61.74-60.91-11.05,5.52Z"/><path class="cls-9" d="M854.44,567.32c.48-4.04,1.2-8.48,2.05-13.36.21-1.22.44-2.47.67-3.74.69-3.83,1.45-7.9,2.23-12.24,1.04-5.79,2.13-12.04,3.18-18.8.52-3.38,1.04-6.88,1.53-10.52.49-3.63.96-7.4,1.39-11.3-9.6,13.7-28.82,60.38-11.05,69.97Z"/><path class="cls-12" d="M834.19,639.13c5.18,1.86,10.94,3.78,16.57,3.68.16-2.23.35-4,.55-5.41.1-.7.2-1.32.3-1.86.15-.81.3-1.44.43-1.94.31-1.16.54-1.6.56-1.85-57.83-14.01-85.18-16.61-18.41,7.37Z"/><path class="cls-12" d="M812,627c.14-.91-105.1-37.06-225.54-9.98-34.38,7.73-61.93,18.8-80.93,27.63,42.64-35.96,91.78-67.28,147.3-77.33,3.95-4.48-2.11-1.96-13.81-1.84-29,.28-52.01,9.39-58,7.36-2.45-.83,1.13-9.9-37.75-16.57-21.5,12.07-39.95,30.23-62.6,40.51.04,2.45-.03,4.91,0,7.36.1,7.98-.05,15.96,0,23.94.1,15.84,1.96,28.73,1.84,34.98-.09,4.66.62,10.83,0,14.73,44.53-31.92,104.7-52.44,159.27-57.08,25.41-2.16,52.31-2.78,62.72-2.77,66.47.08,107.41,9.61,107.5,9.05Z"/><path class="cls-9" d="M493.56,285.61c13.15-26.29,46.05-69.01,66.29-91.14,3.48-3.81,7.49-9.33,12.89-8.29,4.57-6.44,12.39-12.34,14.73-20.25-1.69.36-1.99,1.49-3.68,1.84-16.34,3.41-34.27,4.1-49.71,11.05,4.64,27.71-3.69,21.02-14.73,34.98-16.18,20.46-49.99,61.31-58.92,83.78-8.53,21.46.73,17.94,0,24.86h1.84c1.93-6.91,23.97-35.52,31.3-36.83Z"/><path class="cls-12" d="M533.15,723.83q-4.14-4.14-8.29-8.29c11.61-10.27,25.89-16.57,38.67-24.86,26.11-16.92,43.27-28.39,73.65-38.67.21-2.42-4.44-2.33-6.44-1.84-49.24,12.1-131.52,41.26-172.16,71.81,1.77,10.36,2.39,20.9,3.68,31.3q35.44-14.73,70.89-29.46Z"/><path class="cls-12" d="M484.19,761.33h13.6c-.69-.81-1.48-1.65-2.39-2.52-2.74.7-6.85,1.59-11.21,2.52Z"/><path class="cls-1" d="M546.95,702.66c3.39,10.61,8.77,3.18,5.52,11.97,16.67-9.54,36.87-22.1,54.32-29.46,44.32-18.7,112.73-35.59,159.27-22.1,13.49-.51,30.84,9.01,30.38-1.84-57.52-26.79-99.24-29.51-159.27-9.21-30.38,10.28-47.54,21.75-73.65,38.67,2.54,9.16-15.46,10.45-16.57,11.97Z"/><path class="cls-9" d="M834.19,607.83c-22.33-6.2-40.46-22.06-61.68-31.3-74.17-32.31-119.44-28.66-197.01-27.62-.87.01-4.01,6.32-15.65,0-5.25,2.69-11.25,4.38-16.57,7.36,38.88,6.67,35.3,15.74,37.75,16.57,5.99,2.03,29-7.08,58-7.36-1.19-5.36,38.19-2.75,45.11-1.84,43.77,5.74,106.08,30.52,145.46,51.56.22.12,2.16-3.2,4.6-1.84.24-1.75-.4-3.95,0-5.52Z"/><path class="cls-12" d="M606.8,685.16c-17.44,7.36-37.65,19.92-54.32,29.46,88.51,1.16,150.98-49.18,213.59-51.56-46.54-13.49-114.95,3.39-159.27,22.1Z"/><path class="cls-12" d="M668.48,742.24c1.13,2.82,8.07,10.72,15.98,19.09h48.7c.19-.19.39-.39.68-.68.53-.1,1.49.16,2.79.68h28.94c-12.56-3.75-25.22-7.2-38.18-9.89-16.93-3.51-42.2-7.98-58.92-9.21Z"/><path class="cls-9" d="M849,578.5c0,13.53-10.97,24.5-24.5,24.5s-24.5-10.97-24.5-24.5,10.97-24.5,24.5-24.5,24.5,10.97,24.5,24.5Z"/><path class="cls-12" d="M657.43,745.93c-.22-.31.12-2.17,0-3.68-54.28-2.78-109.29,3.02-162.03,16.57.91.87,1.7,1.71,2.39,2.52h50.04c5.39-2.1,9.85-3.63,12.94-4.36,3.04-.72,5.33-.22,4.6,3.68,1.04-2.82,18.05-14.57,21.6.68h7.52c17.42-7.15,35.23-12.1,53.73-13.57,3.58-.28,5.44-2.58,9.21-1.84Z"/><path class="cls-12" d="M561.69,218.6c-.61-.03-1.23.04-1.84,0q-10.13,122.87-20.25,245.74c76.74,5.15,97.22-32.79,20.25,37.93,11.64,11.33,14.78.02,15.65,0,77.58-1.86,122.84-8.4,197.01,49.48,21.22,16.56,39.35,44.96,61.68,56.07,4.85-34.45,10.72-35.77,11.05-37.93.55-3.64-5.39-48.66-7.36-74.22-10.44-10.85-57.76-113.78-60.76-123.7-6.16-20.34-25.7-137.61-18.41-153.38-6.3-1.46-15.03.58-22.1,0-6.26,60.1.58,156.5-30.38,197.91-3.74,5-17.98,14.25-16.67,16.35,1.76,2.82,31.51-5.92,45.5-27.37,10.93-16.76,7.43-33.9,5.43-57.04-7.25-84.11,16.67-117.28-2.72-130.38-9.54-6.45-15.01,1.8-76.66,3.83-15.82.52-24.11.45-29.46,0-12.97-1.09-25.63-2.66-38.67-3.3-10.42-.51-20.89.59-31.3,0Z"/><path class="cls-9" d="M749.49,258.91c8.42,32.96,8.43,90.29,36.83,138.09.57,6.47-12.04-3.21-20.25-4.6-4.89-.83-6.94-1.79-7.36-1.84-7.29,8.8,12.25,74.27,18.41,85.62,3,5.53,50.32,62.99,60.76,69.05-2.99-21.58-6.51-42.75-9.21-64.44-8.09,2.9-10.66-26.44-16.57-45.11-9.85-31.12-25.87-63.12-29.46-90.22,4.11-10.19,30.46,83.41,40.51,76.41.87-14.15-2.4-29.93,2.76-29.46,23.23,66.07,33.6,85.12,11.97,4.6-41.46-92.54-25.78-88.11,3.68-14.73,10.12,25.22,14.94,52.22,22.1,78.25,12.22-36.4,5.6-63.91,5.52-87.46-.03-10.2,13.29-4.49-5.52-32.22-13.93-20.54-78.04-86.39-103.11-133.49,42.66,24.12,79.2,58.18,111.4,94.82,4.12-10.48-6.2-26.17,10.13-18.41-8.2-13.81-17.53-24.08-26.65-33.56-1.82-1.9-3.64-3.76-5.43-5.62-9.87-10.21-19.14-20.13-25.99-33.45-5.61-10.9-9.6-24.07-10.98-41.53-3.1-.63-8.92-.78-15.96-.66-1.76.03-3.6.07-5.48.13-3.78.12-7.77.29-11.78.48-18.06.89-36.61,2.32-38.59,1.89-.55-.12-1.91-1.51-3.98-3.68-.83-.87-1.77-1.86-2.81-2.94s-2.2-2.26-3.45-3.49c-4.38-4.32-9.96-9.39-16.46-13.83,9.25,37.67,25.41,73.91,34.98,111.4ZM754.1,171.45c8,1.24,54.74-1.64,57.08,0,1.8,1.27,6.14,37.75,8.29,43.27q-32.68-18.87-65.36-37.75v-5.52Z"/><path class="cls-9" d="M589.2,302.37c8.42,32.96,8.43,90.29,36.83,138.09.57,6.47-12.04-3.21-20.25-4.6-4.89-.83-6.94-1.79-7.36-1.84-7.29,8.8,12.25,74.27,18.41,85.62,3,5.53,50.32,62.99,60.76,69.05-2.99-21.58-6.51-42.75-9.21-64.44-8.09,2.9-10.66-26.44-16.57-45.11-9.85-31.12-25.87-63.12-29.46-90.22,4.11-10.19,30.46,83.41,40.51,76.41.87-14.15-2.4-29.93,2.76-29.46,23.23,66.07,33.6,85.12,11.97,4.6-41.46-92.54-25.78-88.11,3.68-14.73,10.12,25.22,14.94,52.22,22.1,78.25,12.22-36.4,5.6-63.91,5.52-87.46-.03-10.2,13.29-4.49-5.52-32.22-13.93-20.54-78.04-86.39-103.11-133.49,42.66,24.12,79.2,58.18,111.4,94.82,4.12-10.48-6.2-26.17,10.13-18.41-8.2-13.81-17.53-24.08-26.65-33.56-1.82-1.9-3.64-3.76-5.43-5.62-9.87-10.21-19.14-20.13-25.99-33.45-5.61-10.9-9.6-24.07-10.98-41.53-3.1-.63-8.92-.78-15.96-.66-1.76.03-3.6.07-5.48.13-3.78.12-7.77.29-11.78.48-18.06.89-36.61,2.32-38.59,1.89-.55-.12-1.91-1.51-3.98-3.68-.83-.87-1.77-1.86-2.81-2.94s-2.2-2.26-3.45-3.49c-4.38-4.32-9.96-9.39-16.46-13.83,9.25,37.67,25.41,73.91,34.98,111.4ZM593.81,214.91c8,1.24,54.74-1.64,57.08,0,1.8,1.27,6.14,37.75,8.29,43.27q-32.68-18.87-65.36-37.75v-5.52Z"/><path class="cls-9" d="M571,388.5c0,13.53-10.97,24.5-24.5,24.5s-24.5-10.97-24.5-24.5,10.97-24.5,24.5-24.5,24.5,10.97,24.5,24.5Z"/><path class="cls-12" d="M871.94,302.18c-32.19-36.64-68.74-70.7-111.4-94.82,25.07,47.1,89.18,112.95,103.11,133.49,7.7-6.69-22.88-34.77-34.98-50.63-50.69-66.44-41.79-60.22,11.05-5.52q20.25,27.16,40.51,54.32c.34-2.18,1.1-5.65,2.04-9.71.47-2.03.99-4.21,1.52-6.45.53-2.24,1.09-4.54,1.62-6.81.54-2.27,1.07-4.52,1.55-6.64.49-2.13.93-4.14,1.3-5.95.75-3.62,1.21-6.42,1.16-7.7h0c-.11-2.82-.83-4.98-1.79-6.65-.38-.67-.8-1.25-1.23-1.77-1.3-1.55-2.7-2.46-3.56-2.99-.43-.27-.72-.44-.78-.56-16.33-7.76-6.01,7.94-10.13,18.41Z"/><path class="cls-9" d="M811.18,171.45c-2.34-1.64-49.08,1.24-57.08,0v5.52q32.68,18.87,65.36,37.75c-2.15-5.52-6.48-42-8.29-43.27Z"/><path class="cls-9" d="M823.14,421.86c-10.05,7-36.4-86.6-40.51-76.41,3.59,27.1,19.61,59.1,29.46,90.22,5.91,18.68,8.48,48.01,16.57,45.11-3.4-27.4-11.02-51.55-11.05-54.32,0-.8,5.31-1.07,5.52-4.6Z"/><path class="cls-12" d="M677.68,393.32c2.34,3.31-.99,76.28,1.84,81.02,1.83,3.07,22.54,2.01,23.94,3.68,2.11,2.52-36.49,52.32,2.76,23.02,30.96-23.12,24.12-76.93,30.38-110.48-11.67-.54-8.74-1.83-9.21-1.84-1.11-.03-4.03,2.01-22.1,1.84-8.84-.08-24.86,5.29-27.62-.92,2.46-26.35.3-110.97-3.68-128.89-.13-.59-2.53-2.86-3.68-2.76-4.26.93-10.26,1.37-14.73,1.84.52,44.27.82,88.48,5.52,132.57,3.21.22,15.23-.97,16.57.92Z"/><path class="cls-12" d="M539.59,527.74q10.13-68.59,20.25-137.17c-10.48-.4-19.8,2.23-20.25-.92,20.95-46.83,25.35-100.73,40.51-148.22,9.24-28.96,22.93-50.89,34.98-77.33,3.14-7.85-5.21-2.94-27.62,1.84-2.34,7.92-10.16,13.81-14.73,20.25-6.53,9.2-22.45,34.54-27.62,44.19-9.13,17.03-19,48.95-27.62,64.44-4.55,31.6-21.32,59.79-29.46,90.22-1.83,6.86-3.99,13.27-5.52,20.25-2.65,12.11-1.22,38.77-11.05,53.4,5.56,51.51,8.28,85.54,9.21,138.09,22.66-10.27,41.11-28.43,62.6-40.51,5.32-2.99,11.32-4.67,16.57-7.36,76.96-39.48,56.48-18.3-20.25-21.17Z"/><path class="cls-12" d="M482.51,405.29c1.53-6.99,3.69-13.4,5.52-20.25-19.54-10.27,3.55-60.35,11.05-79.17,8.15-20.46,29.89-71.68,46.03-75.49,5.17-9.65,21.09-34.99,27.62-44.19-5.4-1.05-9.41,4.48-12.89,8.29-20.23,22.13-53.13,64.85-66.29,91.14-6.59,13.18-23.12,65.32-31.3,72.73q-1.84-1.38-3.68-2.76c-.34,7.81-.36,16.13,0,23.94,11.01,1.36,15.87,18.26,23.94,25.78Z"/><path class="cls-9" d="M458.57,379.52c1.14,24.49,10.17,53.98,12.89,79.17,9.82-14.63,8.4-41.29,11.05-53.4-8.07-7.51-12.93-24.41-23.94-25.78Z"/><path class="cls-9" d="M493.56,285.61c-7.33,1.31-29.37,29.92-31.3,36.83,3.86,10.32-3.29,24.13-3.68,33.14q1.84,1.38,3.68,2.76c8.18-7.41,24.71-59.55,31.3-72.73Z"/><path class="cls-14" d="M594.49,761.33h24.9c7.08-3.33,14.82-6.97,28.83-13.57-18.5,1.47-36.31,6.42-53.73,13.57Z"/><path class="cls-3" d="M499.08,305.86c-7.5,18.83-30.59,68.9-11.05,79.17,8.14-30.43,24.91-58.62,29.46-90.22-3.98,7.16-13.33,28.08-18.41,11.05Z"/><path class="cls-12" d="M499.08,305.86c5.08,17.03,14.43-3.89,18.41-11.05,8.61-15.49,18.49-47.41,27.62-64.44-16.14,3.81-37.88,55.03-46.03,75.49Z"/><polygon class="cls-9" points="763.21 758.62 749.13 758.62 749.13 758.62 707.64 758.62 692.77 758.62 690.98 758.62 665.95 758.62 660.33 758.62 632.51 758.62 619.72 758.62 615.85 758.62 595.73 758.62 570.02 758.62 563.03 758.62 552.56 758.62 538.43 758.62 534.63 758.62 428.11 758.62 428.11 768 879.02 768 879.02 758.62 763.21 758.62"/><path class="cls-9" d="M844,687c3.34,4.34,37.54,47.27,24,69-7.54,12.11-25.74,10.15-80,10-62.83-.17.25,2.51-122,2-86.08-.36-97.24-1.61-113-9-27.1-12.71-66.66-42.96-63-72,5.61-44.53,107.1-69,177-69,23.32,0,123-1.21,177,69Z"/><path class="cls-12" d="M685,688c-11.29,40.64-13.03,52.02-17.5,52-5.32-.02-6.94-16.15-17.5-52-14.21-48.25-25.84-68.53-18-75,4.01-3.31,8.24,1.01,35,5,21.34,3.18,24.25,1.27,28,5,7.56,7.53,2.04,21.64-10,65Z"/></g></svg>